<?xml version="1.0" encoding="UTF-8"?>
<svg id="Layer_1" xmlns="http://www.w3.org/2000/svg" version="1.1" viewBox="0 0 1296 792">
  <!-- Generator: Adobe Illustrator 30.2.1, SVG Export Plug-In . SVG Version: 2.1.1 Build 1)  -->
  <defs>
    <style>
      .st0 {
        fill: #f04f3f;
      }

      .st1 {
        fill: #fdb714;
      }

      .st2 {
        fill: #f36e24;
      }

      .st3 {
        fill: #f99d25;
      }

      .st4 {
        fill: #66b64d;
      }

      .st5 {
        fill: #005da3;
      }

      .st6 {
        fill: #00add8;
      }
    </style>
  </defs>
  <g>
    <g>
      <path class="st5" d="M519.2,483.6h-10.5v-5h26.9v5h-10.5v26.8h-5.9v-26.8Z"/>
      <path class="st5" d="M554.8,508.7c-2.6-1.4-4.6-3.4-6.1-5.8-1.5-2.5-2.2-5.3-2.2-8.4s.7-5.9,2.2-8.4c1.5-2.5,3.5-4.4,6.1-5.8,2.6-1.4,5.5-2.1,8.8-2.1s6.2.7,8.8,2.1c2.6,1.4,4.6,3.3,6.1,5.8,1.5,2.5,2.2,5.3,2.2,8.4s-.7,5.9-2.2,8.4c-1.5,2.5-3.5,4.4-6.1,5.8-2.6,1.4-5.5,2.1-8.8,2.1s-6.2-.7-8.8-2.1ZM569.2,504.2c1.7-1,3-2.3,4-4,1-1.7,1.5-3.6,1.5-5.7s-.5-4-1.5-5.7c-1-1.7-2.3-3-4-4-1.7-1-3.6-1.4-5.7-1.4s-4,.5-5.7,1.4c-1.7,1-3,2.3-4,4-1,1.7-1.5,3.6-1.5,5.7s.5,4,1.5,5.7c1,1.7,2.3,3,4,4,1.7,1,3.6,1.4,5.7,1.4s4-.5,5.7-1.4Z"/>
      <path class="st5" d="M608.3,499.1v11.2h-5.9v-11.1l-12.5-20.6h6.3l9.3,15.5,9.4-15.5h5.8l-12.4,20.5Z"/>
      <path class="st5" d="M638.4,508.7c-2.6-1.4-4.6-3.4-6.1-5.8-1.5-2.5-2.2-5.3-2.2-8.4s.7-5.9,2.2-8.4c1.5-2.5,3.5-4.4,6.1-5.8,2.6-1.4,5.5-2.1,8.8-2.1s6.2.7,8.8,2.1c2.6,1.4,4.6,3.3,6.1,5.8,1.5,2.5,2.2,5.3,2.2,8.4s-.7,5.9-2.2,8.4c-1.5,2.5-3.5,4.4-6.1,5.8-2.6,1.4-5.5,2.1-8.8,2.1s-6.2-.7-8.8-2.1ZM652.8,504.2c1.7-1,3-2.3,4-4,1-1.7,1.5-3.6,1.5-5.7s-.5-4-1.5-5.7c-1-1.7-2.3-3-4-4-1.7-1-3.6-1.4-5.7-1.4s-4,.5-5.7,1.4c-1.7,1-3,2.3-4,4-1,1.7-1.5,3.6-1.5,5.7s.5,4,1.5,5.7c1,1.7,2.3,3,4,4,1.7,1,3.6,1.4,5.7,1.4s4-.5,5.7-1.4Z"/>
      <path class="st5" d="M685.5,483.6h-10.5v-5h26.9v5h-10.5v26.8h-5.9v-26.8Z"/>
      <path class="st5" d="M717.9,509.8c-2.3-.7-4.1-1.6-5.4-2.8l2-4.6c1.3,1,2.9,1.9,4.8,2.5,1.9.7,3.8,1,5.7,1s4.1-.4,5.3-1.1c1.2-.8,1.7-1.8,1.7-3s-.3-1.7-1-2.2c-.7-.6-1.5-1-2.5-1.4-1-.3-2.4-.7-4.1-1.1-2.4-.6-4.4-1.1-5.9-1.7-1.5-.6-2.8-1.5-3.9-2.7-1.1-1.2-1.6-2.9-1.6-5s.5-3.3,1.4-4.8c1-1.4,2.4-2.6,4.3-3.4,1.9-.8,4.3-1.3,7.1-1.3s3.8.2,5.7.7c1.9.5,3.5,1.2,4.9,2.1l-1.9,4.6c-1.4-.8-2.8-1.4-4.4-1.9-1.5-.4-3-.6-4.4-.6-2.3,0-4.1.4-5.2,1.2-1.1.8-1.7,1.8-1.7,3.1s.3,1.6,1,2.2c.6.6,1.5,1,2.5,1.4,1,.3,2.4.7,4.1,1.1,2.4.5,4.3,1.1,5.8,1.7,1.5.6,2.8,1.5,3.9,2.7,1.1,1.2,1.6,2.8,1.6,4.9s-.5,3.3-1.4,4.8c-1,1.4-2.4,2.6-4.3,3.4-1.9.8-4.3,1.3-7.1,1.3s-4.8-.3-7.1-1Z"/>
      <path class="st5" d="M756.1,507.1c-2.4-2.5-3.7-6-3.7-10.6v-17.9h5.9v17.7c0,6.2,2.7,9.3,8.1,9.3s8-3.1,8-9.3v-17.7h5.8v17.9c0,4.6-1.2,8.1-3.7,10.6-2.4,2.5-5.8,3.7-10.2,3.7s-7.8-1.2-10.2-3.7Z"/>
      <path class="st5" d="M819.1,478.6h5.9v31.7h-5.9v-31.7Z"/>
      <path class="st5" d="M870.9,478.6v31.7h-4.9l-17.5-21.5v21.5h-5.8v-31.7h4.9l17.5,21.5v-21.5h5.8Z"/>
      <path class="st5" d="M888.5,478.6h5.9v31.7h-5.9v-31.7Z"/>
      <path class="st5" d="M918.5,483.6h-10.5v-5h26.9v5h-10.5v26.8h-5.9v-26.8Z"/>
      <path class="st5" d="M948.4,478.6h5.9v31.7h-5.9v-31.7Z"/>
      <path class="st5" d="M992.5,503h-15.9l-3.1,7.3h-6.1l14.3-31.7h5.8l14.3,31.7h-6.2l-3.2-7.3ZM990.6,498.4l-6-13.9-5.9,13.9h11.9Z"/>
      <path class="st5" d="M1019.8,483.6h-10.5v-5h26.9v5h-10.5v26.8h-5.9v-26.8Z"/>
      <path class="st5" d="M1049.7,478.6h5.9v31.7h-5.9v-31.7Z"/>
      <path class="st5" d="M1102.1,478.6l-13.8,31.7h-5.8l-13.9-31.7h6.4l10.6,24.5,10.7-24.5h5.9Z"/>
      <path class="st5" d="M1138.3,505.4v4.9h-23.8v-31.7h23.2v4.9h-17.3v8.3h15.3v4.9h-15.3v8.8h17.9Z"/>
    </g>
    <g>
      <g>
        <path class="st5" d="M313.8,465.2c-4.3-28.2-17-49.8-45.7-59.3-13.8-4.5-23.5-14.4-32.6-25.1-.3-.3-.5-.6-.8-.9-3.9-3.6-10.5-.2-9.6,5,0,0,0,0,0,0,.9,4.9,2.6,10,5.4,14,4.5,6.2,10.2,11.6,15.4,17.3,2.7,2.9,5.4,5.8,8.1,8.8-21.9,0-38.9-8.9-52.6-24.4-13.9-15.6-18.6-34.5-19.2-54.8-.3-9.3-3-13-9.5-12.8-6.4.2-9,3.9-8.8,13.3.1,5.6.6,11.2,1.4,16.8,9.9,71.3,68.1,125.9,139.3,130.9,3.6.2,7.1.3,10.7.3v-8.7c0-6.8-.5-13.7-1.6-20.5,0,0,0,0,0,0Z"/>
        <path class="st5" d="M322.5,465.2c4.3-28.2,17-49.8,45.7-59.3,13.8-4.5,23.5-14.4,32.6-25.1.3-.3.5-.6.8-.9,3.9-3.6,10.5-.2,9.6,5,0,0,0,0,0,0-.9,4.9-2.6,10-5.4,14-4.5,6.2-10.2,11.6-15.4,17.3-2.7,2.9-5.4,5.8-8.1,8.8,21.9,0,38.9-8.9,52.6-24.4,13.9-15.6,18.6-34.5,19.2-54.8.3-9.3,3-13,9.5-12.8,6.4.2,9,3.9,8.8,13.3-.1,5.6-.6,11.2-1.4,16.8-9.9,71.3-68.1,125.9-139.3,130.9-3.6.2-7.1.3-10.7.3v-8.7c0-6.8.5-13.7,1.6-20.5,0,0,0,0,0,0Z"/>
      </g>
      <g>
        <g>
          <path class="st1" d="M374.9,322.6c0-.9,0-1.7-.1-2.6,0-.3,0-.6,0-.9,0-.6,0-1.1-.2-1.7,0-.3,0-.7-.1-1,0-.5-.1-1-.2-1.5,0-.4-.1-.7-.2-1,0-.5-.2-1-.3-1.5,0-.4-.1-.7-.2-1.1-.1-.5-.2-1-.3-1.5,0-.3-.2-.7-.3-1-.1-.5-.3-1-.4-1.5,0-.3-.2-.6-.3-1-.2-.6-.4-1.2-.6-1.7,0-.2-.1-.4-.2-.7-.3-.8-.6-1.5-.9-2.3-.1-.3-.3-.6-.4-1-.2-.5-.4-.9-.6-1.3-.2-.4-.3-.7-.5-1.1-.2-.4-.4-.8-.6-1.2-.2-.4-.4-.7-.6-1.1-.2-.4-.4-.8-.7-1.1-.2-.4-.4-.7-.6-1.1-.2-.4-.5-.7-.7-1.1-.2-.4-.5-.7-.7-1-.2-.4-.5-.7-.8-1.1-.2-.3-.5-.7-.7-1-.3-.4-.6-.7-.9-1.1-.2-.3-.5-.6-.7-.9,0,0,0,0,0,0,0,0,0,0,0,0-1.1-1.4-2.3-2.7-3.6-4-10.4-10.5-24.2-16.4-38.8-16.7-15.4-.4-30,5.4-41.1,16.1-2.7,2.6-5,5.4-7.1,8.4,0,0,0,0,0,0-.3.5-.7,1-1,1.5-.1.2-.3.4-.4.7-.3.5-.6.9-.9,1.4-.2.3-.3.5-.5.8-.3.5-.5.9-.8,1.4-.2.3-.3.6-.5.9-.2.5-.5.9-.7,1.4-.2.3-.3.7-.4,1-.2.5-.4.9-.6,1.4-.1.4-.3.7-.4,1.1-.2.4-.3.9-.5,1.3-.3.8-.5,1.5-.8,2.3-.1.4-.2.7-.3,1.1-.1.5-.3,1-.4,1.4,0,.4-.2.8-.3,1.2-.1.5-.2,1-.3,1.4,0,.4-.2.8-.2,1.1,0,.5-.2,1-.3,1.5,0,.4-.1.7-.2,1.1,0,.5-.1,1.1-.2,1.6,0,.4,0,.7-.1,1.1,0,.6,0,1.2-.1,1.8,0,.3,0,.6,0,.9,0,.9,0,1.8,0,2.7,0,19,9.4,36.7,25.3,47.2,5.2,3.5,11.8,4,17.6,1.5,5.8-2.6,9.9-7.9,10.8-14.2v-.2s0,0,0,0l1.6-10.6h0s0-.4,0-.4c0-.2,0-.4,0-.6,0-.2,0-.3,0-.5,0,0,0,0,0,0h0c-.2-1.8-1.6-3.2-3.5-3.5-2.1-.3-4,1-4.6,3h0c0,.2-.1.3-.1.5l-1.2,7.8s0,0,0,0l-.5,3.5c-.5,3.5-2.8,6.4-6,7.9-3.2,1.4-6.7,1.1-9.6-.8-13.5-9-21.6-24.1-21.6-40.4s3.4-20.7,9.6-29c.2-.3.4-.6.7-.9.2-.3.5-.6.7-.9.2-.3.4-.5.7-.8.3-.3.6-.7.9-1,.2-.2.4-.4.6-.6.5-.5,1-1.1,1.5-1.6,9.4-9.2,21.9-14.1,35.1-13.8,12.5.3,24.3,5.4,33.2,14.3.5.5,1,1,1.5,1.5.2.2.3.3.4.5.3.4.7.7,1,1.1.2.2.3.4.5.5,6.8,8.4,10.7,18.7,10.9,29.5.3,16.6-7.7,32-21.4,41.3h-.1c-2.9,2-6.4,2.3-9.7.9-3.2-1.4-5.5-4.4-6-7.9l-1.7-11.2c-.3-2.3-2.4-3.8-4.7-3.5-2,.3-3.5,2-3.5,4,0,.2,0,.4,0,.6l1.7,11.2c.9,6.3,5,11.6,10.8,14.2,2.4,1.1,4.9,1.6,7.4,1.6,3.6,0,7.1-1.1,10.2-3.1h.1c16.1-10.9,25.4-29,25-48.3Z"/>
          <path class="st1" d="M340.5,379.4c-2.3,0-4.1,1.8-4.1,4.1v15.7c0,.3,0,.7,0,1,0,0,0,.1,0,.2,0,0,0,.1,0,.2,0,0,0,0,0,0-.7,6.5-6.2,11.6-12.9,11.6h-10.4c-7.1,0-13-5.8-13-13v-15.7c0-2.3-1.8-4.1-4.1-4.1s-4.1,1.8-4.1,4.1v15.7c0,.3,0,.7,0,1,0,0,0,0,0,0,0,0,0,.2,0,.3,0,0,0,0,0,.1,0,0,0,0,0,0,.7,11.1,9.9,19.8,21.2,19.8h10.4c11.7,0,21.2-9.5,21.2-21.2v-15.7c0-2.3-1.8-4.1-4.1-4.1Z"/>
          <g>
            <rect class="st1" x="303.8" y="383.1" width="28.6" height="8.2" rx="4.1" ry="4.1"/>
            <rect class="st1" x="303.8" y="396.3" width="28.6" height="8.2" rx="4.1" ry="4.1"/>
          </g>
        </g>
        <g>
          <path class="st4" d="M349,329.5c-6.7,8.1-21.1,14.1-30.7,8.2-.5-.3-.9-.7-1.2-1-.3-.3-.4-.5-.4-.5,4-1.7,7.9-3.8,11.6-6.3,9.3-6.2,15.2-12.2,16.4-14.8,0,0-14.2,13.3-29.9,17.5,0,0-4.8-9.6,3-18.5,9.2-10.4,22.1-4.5,38-16.2,0,0,4.5,18-6.8,31.6Z"/>
          <path class="st4" d="M315.9,338.2s0,0-.1,0c-.2.2-.6.5-1,.7-8,3.8-18.9-2-23.5-8.7-7.8-11.4-2.8-24.9-2.8-24.9,9.6,8.5,18.5,7.6,24.9,11.9-3.3,6.7-1.9,12.5-.5,15.7-9.6-5.2-17-13.5-17-13.5.8,2.1,4.9,7.2,11.8,12.7,2.4,2,5.2,3.9,8.4,5.6.2.3-.2.2,0,.4Z"/>
        </g>
      </g>
      <path class="st1" d="M468.4,326.3l-66.3-3.5c-1.8,0-3.2-1.5-3.4-3.3-.9-8.4-3.1-16.3-6.4-23.8-.7-1.6-.1-3.5,1.4-4.5l55.6-36.1c1.8-1.1,4.1-.6,5.1,1.3,10.5,19.9,16.9,42.3,17.8,66.1,0,2.1-1.7,3.8-3.8,3.7Z"/>
      <path class="st4" d="M447,251.3l-59.2,30.1c-1.6.8-3.5.3-4.5-1.1-4.9-6.6-10.7-12.5-17.3-17.3-1.4-1-1.9-2.9-1.1-4.5l30.1-59.2c1-1.9,3.3-2.6,5.1-1.4,19.5,12.3,36.1,28.9,48.4,48.4,1.1,1.8.4,4.1-1.4,5.1Z"/>
      <path class="st3" d="M391.1,197l-36.1,55.6c-1,1.5-2.9,2.1-4.5,1.4-7.4-3.2-15.3-5.4-23.7-6.4-.2,0-.5,0-.7,0-1.4-.3-2.5-1.5-2.6-2.9v-.5s-3.5-66.2-3.5-66.2c-.1-2.1,1.6-3.9,3.7-3.8,23.8.9,46.3,7.2,66.2,17.8,1.9,1,2.4,3.4,1.3,5.1Z"/>
      <path class="st2" d="M315.6,177.9l-3.5,66.4h0c0,1.6-1.1,2.9-2.6,3.3-.2,0-.5,0-.7,0h0c-8.3.9-16.3,3.1-23.6,6.3-1.6.7-3.5.1-4.5-1.4l-36.2-55.6c-1.1-1.7-.6-4.1,1.3-5.1,19.9-10.5,42.3-16.9,66.1-17.7,2.1,0,3.8,1.7,3.7,3.8Z"/>
      <path class="st1" d="M269.6,263c-6.6,4.9-12.5,10.7-17.3,17.3-1,1.4-2.9,1.9-4.5,1.1l-59.2-30.1c-1.9-1-2.6-3.3-1.4-5.1,12.3-19.5,28.9-36.1,48.4-48.4,1.8-1.1,4.1-.4,5.1,1.4l30.1,59.2c.8,1.6.3,3.5-1.1,4.5Z"/>
      <path class="st6" d="M243.3,295.7c-3.3,7.4-5.5,15.4-6.4,23.8-.2,1.8-1.6,3.2-3.4,3.3l-66.3,3.5c-2.1.1-3.9-1.6-3.8-3.7.9-23.8,7.2-46.3,17.8-66.1,1-1.8,3.4-2.4,5.1-1.3l55.6,36.1c1.5,1,2.1,2.9,1.4,4.5Z"/>
      <path class="st0" d="M323.5,244.6c0-.1,0-.2,0-.4s0,0,0-.1v.5Z"/>
    </g>
    <g>
      <path class="st4" d="M1068.9,430c-.2-5.5,1.4-10,4.7-13.6,3.3-3.6,7.7-6.3,13-8,3.2-1.3,6.6-2.1,10.2-2.5,5.6-.9,11.3-1.3,17.1-1.3h3.2v-.7c0-6.5-1.3-11.1-3.8-13.8-2.6-2.7-6.8-4-12.7-4s-5.5.4-8.2,1.3c-2.6.8-4,2.3-4,4.4v4.3h-13.4v-7.4c0-2.7.9-5.2,2.8-7.2,1.9-2.1,4.4-3.5,7.5-4.4,5.4-1.6,10.5-2.4,15.5-2.4,10.9,0,18.7,2.5,23.5,7.4,4.8,5,7.1,12.2,7.1,21.7v31.6c0,2.2,1.1,3.2,3.2,3.2h6v12.2h-13.4c-6.2,0-9.3-2.8-9.3-8.5l.3-4.4h-.3c-1.8,3-2.8,4.8-3.2,5.2-4.8,6.4-11.6,9.6-20.5,9.6s-12.7-2-17.8-6c-5-4-7.5-9.6-7.5-16.6ZM1097.3,441.2c5.7,0,10.4-2.5,14.1-7.4,3.8-5,5.7-10.4,5.7-16.3v-2.5h-3.7c-3.5,0-6.7.1-9.6.4-2.4,0-5.5.6-9.4,1.6-3.5.8-6.3,2.2-8.2,4.3-1.9,2.3-2.9,4.9-3,7.9-.1,3,1.1,5.8,3.7,8.4,2.6,2.6,6.1,3.7,10.4,3.5Z"/>
      <path class="st4" d="M716.3,450.9h-16.5l-23-59.3c-.8-2-2.3-2.9-4.6-2.9h-1.5v-12.2h7.4c3.3,0,5.8.5,7.4,1.5,1.6,1,2.9,3,4,6l16,42.8,2.6,9.7h.3c.7-3.7,1.6-7,2.6-9.7l15.9-42.8c1.1-2.9,2.4-4.9,4-6,1.6-1,4-1.5,7.3-1.5h6.9v12.2h-1.5c-2.5,0-4.1,1-4.9,2.9l-22.7,59.3Z"/>
      <path class="st4" d="M760.4,441.5v-49.6c0-2.2-1.1-3.2-3.2-3.2h-6v-12.2h14c3.3,0,5.7.7,7.2,2.2,1.5,1.5,2.2,3.9,2.2,7.2v49.6c0,2.2,1.1,3.2,3.2,3.2h6v12.2h-14c-3.3,0-5.7-.7-7.2-2.2s-2.2-3.9-2.2-7.2ZM773.5,368.2h-12.8v-14.9h12.8v14.9Z"/>
      <path class="st4" d="M792.7,440.9l-1-1.3,7.4-9.6c.6.8,1.9,2.1,4,3.8,5.4,4.8,11.6,7.2,18.5,7.2s6.9-.9,9.3-2.6c2.4-1.7,3.6-4,3.6-7s-4.8-7.9-14.4-11.5c-3.6-1.4-6.7-2.6-9.1-3.8-2.5-1.2-5.2-2.7-8.1-4.7-2.9-2-5.2-4.3-6.7-7-1.5-2.7-2.3-5.7-2.3-8.9,0-6.6,2.6-11.7,7.7-15.4,5.1-3.7,11.8-5.5,20-5.5s11.4,1.2,16.6,3.5c5.2,2.3,7.8,5.9,7.8,10.9v7.1h-12.8v-3.7c0-2-1.2-3.5-3.5-4.6-2.3-1.1-4.9-1.7-7.7-1.7-9.2,0-13.8,2.9-13.8,8.8s4.8,8.1,14.3,11.8c3.7,1.3,6.8,2.5,9.2,3.5,2.4,1.1,5.1,2.6,8.1,4.5,3,1.9,5.2,4.2,6.8,6.9,1.5,2.7,2.3,5.8,2.3,9.2,0,6.6-2.6,11.9-7.8,15.9-5.1,3.9-11.6,5.9-19.6,5.9s-12.8-1.3-17.7-3.8c-4.9-2.6-8.6-5.2-11-7.9Z"/>
      <path class="st4" d="M880.7,450.9h-14.3v-83.7c0-2.2-1.1-3.2-3.2-3.2h-6v-12.2h14.1c3.5,0,6,.6,7.4,1.8,1.4,1.2,2.1,3.5,2.1,6.7v43.5h6.6c3.6,0,6.2-1.1,7.8-3.2l17.2-24.1h16.3l-20.2,27.7c-1.5,2.1-3.1,3.8-4.9,5.3l-.7.3v.3c1.7.6,3.3,2.5,5,5.6l11,20.2c1.1,2,3.2,2.9,6.3,2.9h4.6v12.2h-10.3c-3.5,0-6.1-.4-7.7-1.3-1.6-.9-3.1-2.7-4.7-5.6l-13.5-25c-1.2-2.1-3.6-3.1-7.4-3.1h-5.6v35Z"/>
      <path class="st4" d="M1037.9,450.9h-14.3v-59c0-2.2-1.1-3.2-3.2-3.2h-6v-12.2h13.5c6.4,0,9.6,2.9,9.6,8.7v4.7l-.3,5.2h.3c1.9-5.8,4.9-10.5,9.1-14.1,4.2-3.6,9-5.4,14.4-5.4l3.8.3v14.1c-1.4-.3-2.8-.4-4.3-.4-4.6,0-8.8,1.6-12.7,4.7-3.8,3.1-6.6,7.4-8.2,12.8-1.2,3.8-1.8,8.3-1.8,13.4v30.5Z"/>
      <g>
        <path class="st4" d="M936.5,430c-.2-5.5,1.4-10,4.7-13.6,3.3-3.6,7.7-6.3,13-8,3.2-1.3,6.6-2.1,10.2-2.5,5.6-.9,11.3-1.3,17.1-1.3h3.2v-.7c0-6.5-1.3-11.1-3.8-13.8-2.6-2.7-6.8-4-12.7-4s-5.5.4-8.2,1.3c-2.6.8-4,2.3-4,4.4v4.3h-13.4v-7.4c0-2.7.9-5.2,2.8-7.2,1.9-2.1,4.4-3.5,7.5-4.4,5.4-1.6,10.5-2.4,15.5-2.4,10.9,0,18.7,2.5,23.5,7.4,4.8,5,7.1,12.2,7.1,21.7v31.6c0,2.2,1.1,3.2,3.2,3.2h6v12.2h-13.4c-6.2,0-9.3-2.8-9.3-8.5l.3-4.4h-.3c-1.8,3-2.8,4.8-3.2,5.2-4.8,6.4-11.6,9.6-20.5,9.6s-12.7-2-17.8-6c-5-4-7.5-9.6-7.5-16.6ZM964.9,441.2c5.7,0,10.4-2.5,14.1-7.4,3.8-5,5.7-10.4,5.7-16.3v-2.5h-3.7c-3.5,0-6.7.1-9.6.4-2.4,0-5.5.6-9.4,1.6-3.5.8-6.3,2.2-8.2,4.3-1.9,2.3-2.9,4.9-3,7.9-.1,3,1.1,5.8,3.7,8.4,2.6,2.6,6.1,3.7,10.4,3.5Z"/>
        <rect class="st4" x="950.8" y="355.2" width="40.4" height="11.4"/>
      </g>
    </g>
    <g>
      <path class="st5" d="M665.2,342.7h-14.3v-59c0-2.2-1.1-3.2-3.2-3.2h-6v-12.2h13.5c6.4,0,9.6,2.9,9.6,8.7v4.7l-.3,5.2h.3c1.9-5.8,4.9-10.5,9.1-14.1,4.2-3.6,9-5.4,14.4-5.4l3.8.3v14.1c-1.4-.3-2.8-.4-4.3-.4-4.6,0-8.8,1.6-12.7,4.7-3.8,3.1-6.6,7.4-8.2,12.8-1.2,3.8-1.8,8.3-1.8,13.4v30.5Z"/>
      <path class="st5" d="M708.5,315.5v-35.8h-9.7v-11.5h10v-20.5h14v20.5h17.8v11.5h-17.8v34.1c0,3.5.5,6.5,1.6,8.9,1.1,2.4,2.5,4.1,4.3,5.2,1.8,1,3.4,1.7,4.9,2.1,1.5.4,3.2.6,4.9.6l3.4-.3v12.7c-1.8.2-3.4.3-5,.3-5.2,0-9.9-.9-14-2.6-9.6-4.1-14.4-12.5-14.4-25.2Z"/>
      <path class="st5" d="M772.3,342.7h-14.3v-88.5c0-2.2-1.1-3.2-3.2-3.2h-6v-12.2h14.1c3.3,0,5.7.7,7.2,2.2,1.5,1.5,2.2,3.8,2.2,6.9v29l-.3,6.2h.3c2-4.2,5.3-8,10.2-11.5,4.9-3.4,10.7-5.2,17.5-5.2,17,0,25.5,9.5,25.5,28.6v32.2c0,2.2,1.1,3.2,3.2,3.2h6v12.2h-14c-3.3,0-5.7-.7-7.2-2.2-1.5-1.5-2.2-3.9-2.2-7.2v-35c0-6.3-1-11-3.1-14.1-2.1-3.1-5.7-4.6-11-4.6s-10.5,1.7-14.8,5.1c-4.3,3.4-7.2,7.8-8.8,13.3-.9,2.6-1.3,5.8-1.3,9.9v34.9Z"/>
      <path class="st5" d="M679.6,438.2c-2.6,0-4.2-1.1-4.9-3.2l-72.8-201h-15.5l-71.1,201c-.7,2.2-2.3,3.2-4.9,3.2h-2.1v12.7h8.1c3.6,0,6.3-.6,7.9-1.7,1.6-1.1,3.1-3.4,4.3-6.8l25.5-75.4h81l26.3,75.4c1.2,3.4,2.6,5.7,4.2,6.8,1.6,1.1,4.2,1.7,7.9,1.7h8.2v-12.7h-2.2ZM558.5,354.6l35.5-105.1h.3l36.6,105.1h-72.5Z"/>
    </g>
  </g>
  <g>
    <path class="st5" d="M1089.1,358.6v-25.5h-9.5v-3.4h22.9v3.4h-9.6v25.5h-3.8Z"/>
    <path class="st5" d="M1106.3,358.6v-28.9h5.8l6.9,20.5c.6,1.9,1.1,3.3,1.4,4.3.3-1.1.8-2.6,1.5-4.6l6.9-20.1h5.2v28.9h-3.7v-24.2l-8.4,24.2h-3.5l-8.4-24.6v24.6h-3.7Z"/>
  </g>
  <g>
    <path class="st4" d="M173.5,595.7c2.2,1.1,5.7,2.3,9.2,2.3s5.8-1.6,5.8-4-1.7-3.6-6.2-5.2c-6.1-2.1-10.1-5.5-10.1-10.9s5.2-11.1,13.9-11.1,7.2.9,9.4,1.9l-1.9,6.7c-1.5-.7-4.1-1.7-7.7-1.7s-5.3,1.6-5.3,3.5,2.1,3.4,6.8,5.2c6.5,2.4,9.6,5.8,9.6,11s-4.7,11.4-14.8,11.4-8.4-1.1-10.4-2.2l1.7-6.9Z"/>
    <path class="st4" d="M243.8,567.4v14.1h13.7v-14.1h8.3v36.8h-8.3v-15.4h-13.7v15.4h-8.4v-36.8h8.4Z"/>
    <path class="st4" d="M314.4,594.8l-2.6,9.4h-8.6l11.2-36.8h10.9l11.4,36.8h-9l-2.8-9.4h-10.5ZM323.7,588.6l-2.3-7.8c-.7-2.2-1.3-4.9-1.9-7.1h-.1c-.5,2.2-1.1,5-1.7,7.1l-2.2,7.8h8.1Z"/>
    <path class="st4" d="M374.4,567.9c2.6-.4,6.2-.8,11.2-.8s8.8,1,11.2,2.9c2.3,1.9,3.9,4.9,3.9,8.5s-1.2,6.7-3.4,8.7c-2.8,2.7-7,3.9-12,3.9s-2.1,0-2.8-.2v13.2h-8.2v-36.3ZM382.6,584.6c.7.2,1.6.2,2.8.2,4.4,0,7.2-2.2,7.2-6s-2.3-5.4-6.5-5.4-2.8.2-3.4.3v10.9Z"/>
    <path class="st4" d="M460.7,588.7h-13.5v8.7h15.1v6.8h-23.5v-36.8h22.7v6.8h-14.4v7.6h13.5v6.8Z"/>
    <path class="st4" d="M549.5,574.4h-9.9v-7h28.3v7h-10v29.8h-8.4v-29.8Z"/>
    <path class="st4" d="M613.4,567.4v14.1h13.7v-14.1h8.3v36.8h-8.3v-15.4h-13.7v15.4h-8.4v-36.8h8.4Z"/>
    <path class="st4" d="M697.3,588.7h-13.5v8.7h15.1v6.8h-23.5v-36.8h22.7v6.8h-14.4v7.6h13.5v6.8Z"/>
    <path class="st4" d="M781.1,567.4h22.5v6.8h-14.1v8.4h13.2v6.8h-13.2v14.8h-8.4v-36.8Z"/>
    <path class="st4" d="M850.9,567.4v21.2c0,6.3,2.4,9.6,6.7,9.6s6.8-3.1,6.8-9.6v-21.2h8.3v20.6c0,11.4-5.7,16.8-15.3,16.8s-14.7-5.1-14.7-16.9v-20.5h8.4Z"/>
    <path class="st4" d="M919.7,574.4h-9.9v-7h28.3v7h-10v29.8h-8.4v-29.8Z"/>
    <path class="st4" d="M983.5,567.4v21.2c0,6.3,2.4,9.6,6.7,9.6s6.8-3.1,6.8-9.6v-21.2h8.3v20.6c0,11.4-5.7,16.8-15.3,16.8s-14.7-5.1-14.7-16.9v-20.5h8.4Z"/>
    <path class="st4" d="M1045.2,567.9c2.7-.4,6.7-.8,11.1-.8s9.3.8,11.9,2.9c2.2,1.7,3.4,4.3,3.4,7.7s-3.3,7.9-6.5,9.1v.2c2.6,1,4,3.5,4.9,6.9,1.1,4.1,2.3,9,3,10.4h-8.5c-.6-1-1.5-4-2.6-8.6-1-4.6-2.6-5.8-5.9-5.9h-2.5v14.5h-8.2v-36.3ZM1053.5,583.8h3.3c4.1,0,6.6-2.1,6.6-5.3s-2.3-5.1-6.1-5.1c-2,0-3.2.2-3.8.3v10.2Z"/>
    <path class="st4" d="M1132.2,588.7h-13.5v8.7h15.1v6.8h-23.5v-36.8h22.7v6.8h-14.4v7.6h13.5v6.8Z"/>
  </g>
  <polygon class="st5" points="1136.4 543.8 1114 530.8 1114 539.6 155.4 539.6 155.4 548 1114 548 1114 556.7 1136.4 543.8"/>
</svg>