<?xml version="1.0" encoding="UTF-8"?>
<svg id="Layer_1" xmlns="http://www.w3.org/2000/svg" version="1.1" viewBox="0 0 1535 1024">
  <!-- Generator: Adobe Illustrator 30.2.1, SVG Export Plug-In . SVG Version: 2.1.1 Build 1)  -->
  <defs>
    <style>
      .st0 {
        fill: #0657a5;
      }
    </style>
  </defs>
  <path class="st0" d="M1103,441.3h-184.8c0,0-11.5,24.4-11.5,24.4l-144.2,300.4-39.1,79.8h-253.9s68.1-146.1,68.1-146.1l120.7-255.1,19-18.5,83.6-83.8c7.7-7.7,10.8-19.8,12.1-29.7,2.4-18.6-7.7-36.2-23-44.6-16.1-8.8-38-8.9-51.8,4.7l-63.3,62.3-104.8,106.2h-60.5c0,0,67.2-206.9,67.2-206.9h447.1c-3.2,6.6-9.3,11.2-14.3,16.3l-20.9,21.5-160.6,166-45,46.2-79.9,82-30.6,31.5c-5.9,6.1-9.3,15.2-10.8,23.6-5.1,26.6,13.8,52.5,41.1,54.5,13.4,1,27.7-3.3,36.9-12.9l34.4-35.7,89-92.9,103.5-108.4,77-80.1,106.8-111.7,58.4.2-41.6,130.8-24.4,76.1Z"/>
  <circle class="st0" cx="449.1" cy="628.5" r="47.4"/>
  <circle class="st0" cx="1156.4" cy="130.6" r="46.6"/>
</svg>